<svg width="267" height="267" viewBox="0 0 267 267" fill="none" xmlns="http://www.w3.org/2000/svg">
<path opacity="0.6" d="M129.795 22.25H92.7046C82.869 22.25 73.4362 26.1572 66.4814 33.112C59.5266 40.0668 55.6194 49.4996 55.6194 59.3352C55.6194 69.1708 59.5266 78.6036 66.4814 85.5584C73.4362 92.5132 82.869 96.4204 92.7046 96.4204H129.795V22.25Z" fill="black"/>
<path opacity="0.4" d="M129.795 96.4092H92.7046C82.869 96.4092 73.4362 100.316 66.4814 107.271C59.5266 114.226 55.6194 123.659 55.6194 133.494C55.6194 143.33 59.5266 152.763 66.4814 159.718C73.4362 166.672 82.869 170.58 92.7046 170.58H129.795V96.4092Z" fill="black"/>
<path d="M203.955 133.5C203.955 143.336 200.047 152.768 193.093 159.723C186.138 166.678 176.705 170.585 166.869 170.585C157.034 170.585 147.601 166.678 140.646 159.723C133.691 152.768 129.784 143.336 129.784 133.5C129.784 123.664 133.691 114.232 140.646 107.277C147.601 100.322 157.034 96.4148 166.869 96.4148C176.705 96.4148 186.138 100.322 193.093 107.277C200.047 114.232 203.955 123.664 203.955 133.5Z" fill="black"/>
<path opacity="0.2" d="M92.7045 170.591H129.795V207.67C129.793 215.003 127.617 222.17 123.542 228.266C119.466 234.362 113.675 239.113 106.9 241.918C100.125 244.724 92.6707 245.457 85.479 244.026C78.2873 242.595 71.6814 239.063 66.4964 233.878C61.3114 228.693 57.7801 222.088 56.349 214.896C54.9179 207.704 55.6513 200.25 58.4564 193.475C61.2615 186.7 66.0123 180.908 72.1084 176.833C78.2044 172.758 85.3718 170.593 92.7045 170.591Z" fill="black"/>
<path opacity="0.8" d="M129.784 22.25H166.864C176.699 22.25 186.132 26.1572 193.087 33.112C200.042 40.0668 203.949 49.4996 203.949 59.3352C203.949 69.1708 200.042 78.6036 193.087 85.5584C186.132 92.5132 176.699 96.4204 166.864 96.4204H129.784V22.25Z" fill="black"/>
</svg>
