<?xml version="1.0" standalone="no"?>
<!DOCTYPE svg PUBLIC "-//W3C//DTD SVG 20010904//EN"
 "http://www.w3.org/TR/2001/REC-SVG-20010904/DTD/svg10.dtd">
<svg version="1.0" xmlns="http://www.w3.org/2000/svg"
 width="240.000000pt" height="240.000000pt" viewBox="0 0 240.000000 240.000000"
 preserveAspectRatio="xMidYMid meet">
<metadata>
Created by potrace 1.14, written by Peter Selinger 2001-2017
</metadata>
<g transform="translate(0.000000,240.000000) scale(0.100000,-0.100000)"
fill="#000000" stroke="none">
<path d="M1040 2390 c-25 -4 -61 -10 -81 -14 -168 -27 -415 -151 -554 -278
l-54 -49 -88 -2 -88 -2 -2 -117 c-2 -104 -5 -121 -26 -155 -47 -74 -109 -251
-132 -373 -13 -69 -12 -305 1 -392 16 -107 62 -247 115 -351 39 -78 39 -80 41
-205 l3 -127 103 -3 104 -3 68 -54 c136 -111 330 -203 505 -240 108 -24 334
-28 445 -9 203 36 413 132 566 261 l51 43 117 0 117 0 -2 147 c-1 142 0 150
26 203 50 101 90 221 110 330 11 59 14 302 4 360 -5 30 -11 70 -14 89 -9 54
-62 206 -96 274 -30 60 -31 66 -31 194 l0 131 -98 -1 -98 -1 -58 53 c-148 132
-336 227 -539 273 -97 22 -333 32 -415 18z"/>
</g>
</svg>
